<svg xmlns="http://www.w3.org/2000/svg" width="296.612" height="35.403" viewBox="0 0 296.612 35.403">
  <g id="グループ_869" data-name="グループ 869" transform="translate(-50 -34.299)">
    <g id="グループ_151" data-name="グループ 151" transform="translate(-357.899 -72.267)">
      <g id="グループ_150" data-name="グループ 150" transform="translate(1 1)">
        <path id="パス_522" data-name="パス 522" d="M468.852,138.57a1.809,1.809,0,0,1-1.831-1.839V112.794a1.763,1.763,0,0,1,.528-1.326,1.8,1.8,0,0,1,1.3-.513,1.771,1.771,0,0,1,1.619.991l11.019,22.169h-1.126L491.1,111.946a1.772,1.772,0,0,1,1.62-.991,1.8,1.8,0,0,1,1.3.513,1.768,1.768,0,0,1,.529,1.326v23.937a1.755,1.755,0,0,1-.546,1.308,1.822,1.822,0,0,1-3.116-1.308V117.885l.7-.177-9.224,18.881a1.819,1.819,0,0,1-1.585.92,1.759,1.759,0,0,1-1.689-1.1l-9.118-18.35.7-.177v18.846a1.81,1.81,0,0,1-1.831,1.839Z" fill="#333"/>
        <path id="パス_523" data-name="パス 523" d="M510.29,138.711a10.554,10.554,0,0,1-5.193-1.255,9.157,9.157,0,0,1-3.556-3.466,9.9,9.9,0,0,1-1.285-5.073,10.437,10.437,0,0,1,1.215-5.109,8.9,8.9,0,0,1,3.362-3.465,9.583,9.583,0,0,1,4.929-1.256,8.794,8.794,0,0,1,4.718,1.22,7.935,7.935,0,0,1,3.009,3.359,11.159,11.159,0,0,1,1.039,4.933,1.481,1.481,0,0,1-.458,1.113,1.6,1.6,0,0,1-1.161.443H502.721v-2.83H516.8l-1.444.991a7.567,7.567,0,0,0-.7-3.164,5.13,5.13,0,0,0-4.893-3.024,6.392,6.392,0,0,0-3.433.884,5.691,5.691,0,0,0-2.165,2.422,7.939,7.939,0,0,0-.739,3.483,6.789,6.789,0,0,0,.88,3.465,6.43,6.43,0,0,0,2.429,2.4,7.041,7.041,0,0,0,3.556.884,6.671,6.671,0,0,0,2.235-.406,6.931,6.931,0,0,0,1.849-.938,2,2,0,0,1,1.145-.406,1.534,1.534,0,0,1,1.073.371,1.679,1.679,0,0,1,.634,1.167,1.255,1.255,0,0,1-.564,1.1,9.724,9.724,0,0,1-2.974,1.556A10.605,10.605,0,0,1,510.29,138.711Z" fill="#333"/>
        <path id="パス_524" data-name="パス 524" d="M531.836,138.711A9.527,9.527,0,0,1,523.4,133.9a9.866,9.866,0,0,1-1.285-5.022,10.456,10.456,0,0,1,1.18-5,9.155,9.155,0,0,1,3.222-3.5,8.448,8.448,0,0,1,4.611-1.291,8.643,8.643,0,0,1,6.795,3.218v-9.547a1.738,1.738,0,0,1,.511-1.308,1.789,1.789,0,0,1,3.081,1.308v16.123a9.866,9.866,0,0,1-1.286,5.022,9.466,9.466,0,0,1-8.4,4.808Zm0-3.182a5.985,5.985,0,0,0,3.2-.867,6.114,6.114,0,0,0,2.218-2.386,7.1,7.1,0,0,0,.81-3.4,6.968,6.968,0,0,0-.81-3.393,6.18,6.18,0,0,0-2.218-2.352,6.327,6.327,0,0,0-6.39,0,6.262,6.262,0,0,0-2.253,2.352,6.846,6.846,0,0,0-.828,3.393,6.979,6.979,0,0,0,.828,3.4,6.192,6.192,0,0,0,2.253,2.386A6.011,6.011,0,0,0,531.836,135.529Z" fill="#333"/>
        <path id="パス_525" data-name="パス 525" d="M550,116.082a2.348,2.348,0,1,1,1.637-.689A2.234,2.234,0,0,1,550,116.082Zm0,22.488a1.751,1.751,0,0,1-1.8-1.8V121.032a1.737,1.737,0,0,1,.511-1.308,1.788,1.788,0,0,1,3.08,1.308v15.734a1.79,1.79,0,0,1-.492,1.291A1.726,1.726,0,0,1,550,138.57Z" fill="#333"/>
        <path id="パス_526" data-name="パス 526" d="M567.218,138.711a9.714,9.714,0,0,1-5.017-1.291,9.288,9.288,0,0,1-3.45-3.5,9.981,9.981,0,0,1-1.25-5,10.342,10.342,0,0,1,1.232-5.092,9,9,0,0,1,3.38-3.482,9.586,9.586,0,0,1,4.929-1.256,8.981,8.981,0,0,1,3.8.8,9.145,9.145,0,0,1,3.1,2.387,1.274,1.274,0,0,1,.353,1.167,1.849,1.849,0,0,1-.774,1.06,1.333,1.333,0,0,1-1.092.23,2.13,2.13,0,0,1-1.091-.618,5.65,5.65,0,0,0-4.3-1.839,6,6,0,0,0-3.168.831,5.746,5.746,0,0,0-2.148,2.315,7.47,7.47,0,0,0-.775,3.5,7.109,7.109,0,0,0,.792,3.394,6.054,6.054,0,0,0,2.2,2.351,6.118,6.118,0,0,0,3.274.867,7.089,7.089,0,0,0,2.166-.3,5.16,5.16,0,0,0,1.707-.938,2.136,2.136,0,0,1,1.162-.512,1.381,1.381,0,0,1,1.056.336,1.692,1.692,0,0,1,.669,1.114,1.317,1.317,0,0,1-.422,1.113A8.927,8.927,0,0,1,567.218,138.711Z" fill="#333"/>
        <path id="パス_527" data-name="パス 527" d="M587.673,138.711a8.431,8.431,0,0,1-4.611-1.291,9.133,9.133,0,0,1-3.222-3.5,10.444,10.444,0,0,1-1.18-5,9.862,9.862,0,0,1,1.285-5.021,9.7,9.7,0,0,1,16.829,0,9.863,9.863,0,0,1,1.286,5.021h-1.373a10.456,10.456,0,0,1-1.18,5,9.149,9.149,0,0,1-3.222,3.5A8.434,8.434,0,0,1,587.673,138.711Zm.7-3.182a5.985,5.985,0,0,0,3.2-.867,6.136,6.136,0,0,0,2.218-2.369,7,7,0,0,0,.81-3.376,7.076,7.076,0,0,0-.81-3.412,6.15,6.15,0,0,0-2.218-2.369,6.327,6.327,0,0,0-6.39,0,6.23,6.23,0,0,0-2.253,2.369,6.952,6.952,0,0,0-.828,3.412,6.875,6.875,0,0,0,.828,3.376,6.216,6.216,0,0,0,2.253,2.369A6.011,6.011,0,0,0,588.377,135.529Zm7.887,3.076a1.75,1.75,0,0,1-1.8-1.8v-5.41l.669-3.748,2.923,1.273V136.8a1.75,1.75,0,0,1-1.8,1.8Z" fill="#333"/>
        <path id="パス_528" data-name="パス 528" d="M607.986,138.57a4.634,4.634,0,0,1-2.746-.849,5.62,5.62,0,0,1-1.865-2.315,8.068,8.068,0,0,1-.669-3.377V112.723a1.761,1.761,0,1,1,3.521,0v19.306a4.242,4.242,0,0,0,.493,2.156,1.447,1.447,0,0,0,1.266.848h.881a1.46,1.46,0,0,1,1.144.5,1.842,1.842,0,0,1,.44,1.273,1.516,1.516,0,0,1-.669,1.272,2.817,2.817,0,0,1-1.725.5Z" fill="#333"/>
        <path id="パス_529" data-name="パス 529" d="M616.154,138.57a1.81,1.81,0,0,1-1.831-1.839V112.794a1.764,1.764,0,0,1,.529-1.326,1.8,1.8,0,0,1,1.3-.513H623.2a9.268,9.268,0,0,1,4.683,1.167,8.276,8.276,0,0,1,3.187,3.236,9.68,9.68,0,0,1,1.143,4.755,9.162,9.162,0,0,1-1.143,4.6,8.134,8.134,0,0,1-3.187,3.148,9.5,9.5,0,0,1-4.683,1.131h-5.21v7.743a1.814,1.814,0,0,1-.51,1.308A1.754,1.754,0,0,1,616.154,138.57Zm1.831-12.977h5.21a5.623,5.623,0,0,0,2.852-.707,5.12,5.12,0,0,0,1.936-1.944,5.616,5.616,0,0,0,.705-2.829,6.137,6.137,0,0,0-.705-2.988,5.28,5.28,0,0,0-1.936-2.033,5.418,5.418,0,0,0-2.852-.742h-5.21Z" fill="#333"/>
        <path id="パス_530" data-name="パス 530" d="M638.053,138.57a1.7,1.7,0,0,1-1.285-.531,1.811,1.811,0,0,1-.511-1.308V112.794a1.781,1.781,0,0,1,.528-1.308,1.725,1.725,0,0,1,1.268-.531,1.807,1.807,0,0,1,1.83,1.839v22.1h12.745a1.839,1.839,0,1,1,0,3.677Z" fill="#333"/>
        <path id="パス_531" data-name="パス 531" d="M657.769,138.57a1.685,1.685,0,0,1-1.515-.849,1.826,1.826,0,0,1-.105-1.8l9.893-23.725a1.787,1.787,0,0,1,1.725-1.238,1.711,1.711,0,0,1,1.725,1.238l9.928,23.8a1.871,1.871,0,0,1-.123,1.785,1.7,1.7,0,0,1-1.531.8,1.843,1.843,0,0,1-1-.3,1.711,1.711,0,0,1-.687-.831l-8.73-21.781h.985l-8.872,21.781a1.769,1.769,0,0,1-.722.848A1.857,1.857,0,0,1,657.769,138.57Zm1.865-6.081,1.408-3.041h13.8l1.408,3.041Z" fill="#333"/>
        <path id="パス_532" data-name="パス 532" d="M691.848,138.57a1.728,1.728,0,0,1-1.268-.531,1.784,1.784,0,0,1-.527-1.308v-8.239l-9.4-14.672a2.038,2.038,0,0,1-.352-1.4,1.645,1.645,0,0,1,.616-1.06,1.839,1.839,0,0,1,1.18-.407,1.541,1.541,0,0,1,.95.265,2.9,2.9,0,0,1,.669.761l8.942,14.249h-1.408l9.084-14.391a2.081,2.081,0,0,1,.669-.654,1.831,1.831,0,0,1,.95-.23,1.4,1.4,0,0,1,1.057.442,1.829,1.829,0,0,1,.492,1.1,2.049,2.049,0,0,1-.352,1.327l-9.47,14.672v8.239a1.81,1.81,0,0,1-1.831,1.839Z" fill="#333"/>
        <circle id="楕円形_4" data-name="楕円形 4" cx="2.866" cy="2.866" r="2.866" transform="translate(547.136 110.883)" fill="#ff9300"/>
      </g>
      <g id="グループ_144" data-name="グループ 144">
        <path id="パス_505" data-name="パス 505" d="M428.55,141.968H419.7L423.36,120a2.016,2.016,0,0,1,1.914-1.639h7.21Z" fill="#ff9300"/>
        <path id="パス_506" data-name="パス 506" d="M416.749,141.968H407.9l1.743-10.463a1.644,1.644,0,0,1,1.562-1.338h7.512Z" fill="#ff9300"/>
        <path id="パス_507" data-name="パス 507" d="M453.955,121.317h-7.212l2.459-14.752h8.851l-2.186,13.112A2.017,2.017,0,0,1,453.955,121.317Z" fill="#ff9300"/>
        <path id="パス_508" data-name="パス 508" d="M438.712,141.968H431.5l5.628-33.764a2.015,2.015,0,0,1,1.912-1.639h7.212l-5.628,33.764A2.016,2.016,0,0,1,438.712,141.968Z" fill="#ff9300"/>
      </g>
    </g>
  </g>
</svg>
